<?xml version="1.0" encoding="utf-8"?>
<!-- Generator: Adobe Illustrator 19.1.0, SVG Export Plug-In . SVG Version: 6.00 Build 0)  -->
<svg version="1.1" id="Layer_1" xmlns="http://www.w3.org/2000/svg" xmlns:xlink="http://www.w3.org/1999/xlink" x="0px" y="0px"
	 viewBox="-239 77 120 48" style="enable-background:new -239 77 120 48;" xml:space="preserve">
<style type="text/css">
	.st0{fill:#FFFFFF;}
	.st1{fill:#D44457;}
</style>
<rect x="-162" y="97" class="st0" width="14" height="2"/>
<rect x="-162" y="121" class="st1" width="14" height="2"/>
<path class="st0" d="M-167,79v16h24V79H-167z M-158,92V82l6.7,5L-158,92z"/>
<g>
	<path class="st0" d="M-193,85h-6c-1.1,0-2,0.9-2,2v12c0,1.1,0.9,2,2,2h6c1.1,0,2-0.9,2-2V87C-191,85.9-191.9,85-193,85z M-193,97
		h-6V87h6V97z"/>
	<path class="st0" d="M-203,92h-6V80h14v3h2c0.3,0,0.7,0.1,1,0.1V79c0-1.1-0.9-2-2-2h-19c-1.1,0-2,0.9-2,2v14c0,1.1,0.9,2,2,2h10V92
		z M-211,88h-2v-4h2V88z"/>
</g>
<g>
	<path class="st0" d="M-143,78v22h24V78H-143z M-121,80v9.9l-5.1-4.3l-6,7l-4.9-3.9l-4,3.2V80H-121z"/>
	<circle class="st0" cx="-133" cy="85" r="3"/>
</g>
<path class="st1" d="M-167,103v16h24v-16H-167z M-158,116v-10l6.7,5L-158,116z"/>
<g>
	<path class="st1" d="M-193,109h-6c-1.1,0-2,0.9-2,2v12c0,1.1,0.9,2,2,2h6c1.1,0,2-0.9,2-2v-12C-191,109.9-191.9,109-193,109z
		 M-193,121h-6v-10h6V121z"/>
	<path class="st1" d="M-203,116h-6v-12h14v3h2c0.3,0,0.7,0.1,1,0.1V103c0-1.1-0.9-2-2-2h-19c-1.1,0-2,0.9-2,2v14c0,1.1,0.9,2,2,2h10
		V116z M-211,112h-2v-4h2V112z"/>
</g>
<g>
	<path class="st1" d="M-143,102v22h24v-22H-143z M-121,104v9.9l-5.1-4.3l-6,7l-4.9-3.9l-4,3.2V104H-121z"/>
	<circle class="st1" cx="-133" cy="109" r="3"/>
</g>
<g>
	<path class="st0" d="M-167,96V78h-24v18h9v2h-4v2h4h6h4v-2h-4v-2H-167z M-188,93V81h18v12H-188z"/>
</g>
<g>
	<path class="st1" d="M-167,120v-18h-24v18h9v2h-4v2h4h6h4v-2h-4v-2H-167z M-188,117v-12h18v12H-188z"/>
</g>
<g>
	<g>
		<path class="st1" d="M-217.1,105.2c-1.7-1.7-5-1.7-8.1-0.1c-0.1,1.5,0.5,3.1,1.7,4.4c1,1,2.2,1.5,3.4,1.7
			C-217.8,108.3-216.6,105.8-217.1,105.2z M-220.4,106.3c-0.3,0.3-0.7,0.3-1,0c-0.3-0.3-0.3-0.7,0-1c0.3-0.3,0.7-0.3,1,0
			C-220.1,105.6-220.1,106.1-220.4,106.3z"/>
		<path class="st1" d="M-226.4,105.7c-0.2,0.1-0.5,0.3-0.7,0.5l-0.5-0.3c-0.5-0.2-1-0.2-1.4,0.2l-3.7,3.7c-0.3,0.3-0.4,0.7-0.3,1
			c0.1,0.4,0.3,0.7,0.6,0.9l0.8,0.4c-0.8,2-1.3,3.9-1.4,5.2l-3.7,1.3c-0.2,0.1-0.3,0.2-0.3,0.4c0,0.2,0.1,0.3,0.2,0.4l1.6,0.8
			c0.3,0.1,0.6,0.4,0.7,0.7l0.8,1.6c0.1,0.2,0.2,0.3,0.4,0.2c0.2,0,0.3-0.1,0.4-0.3l1.3-3.7c1.7-0.3,4.7-1.6,7.4-3.6l0.3,0.9
			c0.1,0.2,0.2,0.3,0.4,0.3c0.2,0,0.3,0,0.5-0.1l0.3-0.3c0.2-0.2,0.4-0.6,0.4-0.9l0.1-1.6c0.5-0.5,0.9-0.9,1.3-1.4
			c-1.2-0.3-2.4-0.9-3.3-1.9C-225.6,109-226.3,107.3-226.4,105.7z"/>
	</g>
</g>
<g>
	<g>
		<path class="st0" d="M-217.1,82.3c-1.7-1.7-5-1.7-8.1-0.1c-0.1,1.5,0.5,3.1,1.7,4.4c1,1,2.2,1.5,3.4,1.7
			C-217.8,85.4-216.6,82.9-217.1,82.3z M-220.4,83.4c-0.3,0.3-0.7,0.3-1,0c-0.3-0.3-0.3-0.7,0-1c0.3-0.3,0.7-0.3,1,0
			C-220.1,82.7-220.1,83.2-220.4,83.4z"/>
		<path class="st0" d="M-226.4,82.8c-0.2,0.1-0.5,0.3-0.7,0.5l-0.5-0.3c-0.5-0.2-1-0.2-1.4,0.2l-3.7,3.7c-0.3,0.3-0.4,0.7-0.3,1
			c0.1,0.4,0.3,0.7,0.6,0.9l0.8,0.4c-0.8,2-1.3,3.9-1.4,5.2l-3.7,1.3c-0.2,0.1-0.3,0.2-0.3,0.4c0,0.2,0.1,0.3,0.2,0.4l1.6,0.8
			c0.3,0.1,0.6,0.4,0.7,0.7l0.8,1.6c0.1,0.2,0.2,0.3,0.4,0.2c0.2,0,0.3-0.1,0.4-0.3l1.3-3.7c1.7-0.3,4.7-1.6,7.4-3.6l0.3,0.9
			c0.1,0.2,0.2,0.3,0.4,0.3c0.2,0,0.3,0,0.5-0.1l0.3-0.3c0.2-0.2,0.4-0.6,0.4-0.9l0.1-1.6c0.5-0.5,0.9-0.9,1.3-1.4
			c-1.2-0.3-2.4-0.9-3.3-1.9C-225.6,86.1-226.3,84.4-226.4,82.8z"/>
	</g>
</g>
</svg>
